{"title":"House of Cards 2013 S04E02 720p WEBRip X264-DEFLATE","uid":13744266,"size":783110283,"categoryP":"video","categoryS":"hd___tv_shows","magnet":"?xt=urn:btih:16c8076181b17eee1ed8690614b0c23013378f20&amp;dn=House+of+Cards+2013+S04E02+720p+WEBRip+X264-DEFLATE&amp;tr=udp%3A%2F%2Ftracker.leechers-paradise.org%3A6969&amp;tr=udp%3A%2F%2Fzer0day.ch%3A1337&amp;tr=udp%3A%2F%2Fopen.demonii.com%3A1337&amp;tr=udp%3A%2F%2Ftracker.coppersurfer.tk%3A6969&amp;tr=udp%3A%2F%2Fexodus.desync.com%3A6969","seeders":8,"leechers":3,"uploader":"Cybotage","files":3,"time":1457106798,"description":"\nHouse.of.Cards.2013.S04E02.720p.WEBRip.X264-DEFLATE[rartv]\r\n\r\nimage\r\nScreens :\r\nID : 1\r\nFormat : AVC\r\nFormat/Info : Advanced Video Codec\r\nFormat profile :   \r\nFormat settings, CABAC : Yes\r\nFormat settings, ReFrames : 8 frames\r\nCodec ID : V_MPEG4/ISO/AVC\r\nDuration : 41mn 37s\r\nBit rate : 1 819 Kbps\r\nWidth : 1 280 pixels\r\nHeight : 640 pixels\r\nDisplay aspect ratio : 2.000\r\nFrame rate mode : Constant\r\nFrame rate : 23.976 (24000/1001) fps\r\nColor space : YUV\r\nChroma subsampling : 4:2:0\r\nBit depth : 8 bits\r\nScan type : Progressive\r\nBits/(Pixel*Frame) : 0.093\r\nStream size : 541 MiB (72%)\r\nTitle : X264-720\r\nWriting library : x264 core 148 r2665 a01e339\r\nEncoding settings : cabac=1 / ref=8 / deblock=1:-3:-3 / analyse=0x3:0x133 / me=umh / subme=10 / psy=1 / psy_rd=1.05:0.00 / mixed_ref=1 / me_range=36 / chroma_me=1 / trellis=2 / 8x8dct=1 / cqm=0 / deadzone=6,6 / fast_pskip=0 / chroma_qp_offset=-2 / threads=12 / lookahead_threads=2 / sliced_threads=0 / nr=0 / decimate=0 / interlaced=0 / bluray_compat=0 / constrained_intra=0 / bframes=9 / b_pyramid=2 / b_adapt=2 / b_bias=0 / direct=3 / weightb=1 / open_gop=0 / weightp=2 / keyint=250 / keyint_min=23 / scenecut=40 / intra_refresh=0 / rc=crf / mbtree=0 / crf=18.0 / qcomp=0.80 / qpmin=0 / qpmax=69 / qpstep=4 / ip_ratio=1.10 / pb_ratio=1.10 / aq=3:0.60\r\nLanguage : English\r\nDefault : Yes\r\nForced : No\r\n\r\nAudio\r\nID : 2\r\nFormat : AC-3\r\nFormat/Info : Audio Coding 3\r\nMode extension : CM (complete main)\r\nFormat settings, Endianness : Big\r\nCodec ID : A_AC3\r\nDuration : 41mn 37s\r\nBit rate mode : Constant\r\nBit rate : 640 Kbps\r\nChannel(s) : 6 channels\r\nChannel positions : Front: L C R, Side: L R, LFE\r\nSampling rate : 48.0 KHz\r\nFrame rate : 31.250 fps (1536 spf)\r\nCompression mode : Lossy\r\nStream size : 191 MiB (26%)\r\nTitle : AC3 5.1\r\nLanguage : English\r\nDefault : Yes\r\nForced : No\r\n\r\nText #1\r\nID : 3\r\nFormat : UTF-8\r\nCodec ID : S_TEXT/UTF8\r\nCodec ID/Info : UTF-8 Plain Text\r\nTitle : English\r\nLanguage : English\r\nDefault : Yes\r\nForced : No\r\n\r\nText #2\r\nID : 4\r\nFormat : UTF-8\r\nCodec ID : S_TEXT/UTF8\r\nCodec ID/Info : UTF-8 Plain Text\r\nTitle : English (SDH)\r\nLanguage : English\r\nDefault : No\r\nForced : No\r\n\r\nText #3\r\nID : 5\r\nFormat : UTF-8\r\nCodec ID : S_TEXT/UTF8\r\nCodec ID/Info : UTF-8 Plain Text\r\nTitle : Dutch\r\nLanguage : Dutch\r\nDefault : No\r\nForced : No\r\n\r\nText #4\r\nID : 6\r\nFormat : UTF-8\r\nCodec ID : S_TEXT/UTF8\r\nCodec ID/Info : UTF-8 Plain Text\r\nTitle : French\r\nLanguage : French\r\nDefault : No\r\nForced : No\r\n\r\nText #5\r\nID : 7\r\nFormat : UTF-8\r\nCodec ID : S_TEXT/UTF8\r\nCodec ID/Info : UTF-8 Plain Text\r\nTitle : Italian\r\nLanguage : Italian\r\nDefault : No\r\nForced : No\r\n\r\nText #6\r\nID : 8\r\nFormat : UTF-8\r\nCodec ID : S_TEXT/UTF8\r\nCodec ID/Info : UTF-8 Plain Text\r\nTitle : Portuguese\r\nLanguage : Portuguese\r\nDefault : No\r\nForced : No","torrent":{"xt":"urn:btih:16c8076181b17eee1ed8690614b0c23013378f20","amp;dn":"House+of+Cards+2013+S04E02+720p+WEBRip+X264-DEFLATE","amp;tr":["udp%3A%2F%2Ftracker.leechers-paradise.org%3A6969","udp%3A%2F%2Fzer0day.ch%3A1337","udp%3A%2F%2Fopen.demonii.com%3A1337","udp%3A%2F%2Ftracker.coppersurfer.tk%3A6969","udp%3A%2F%2Fexodus.desync.com%3A6969"],"infoHash":"16c8076181b17eee1ed8690614b0c23013378f20","infoHashBuffer":{"type":"Buffer","data":[22,200,7,97,129,177,126,238,30,216,105,6,20,176,194,48,19,55,143,32]},"announce":[],"urlList":[]}}